<?xml version="1.0" encoding="UTF-8" standalone="no"?>
<!-- Created with Inkscape (http://www.inkscape.org/) -->

<svg
   xmlns:dc="http://purl.org/dc/elements/1.1/"
   xmlns:cc="http://creativecommons.org/ns#"
   xmlns:rdf="http://www.w3.org/1999/02/22-rdf-syntax-ns#"
   xmlns:svg="http://www.w3.org/2000/svg"
   xmlns="http://www.w3.org/2000/svg"
   xmlns:xlink="http://www.w3.org/1999/xlink"
   xmlns:sodipodi="http://sodipodi.sourceforge.net/DTD/sodipodi-0.dtd"
   xmlns:inkscape="http://www.inkscape.org/namespaces/inkscape"
   id="svg3001"
   sodipodi:version="0.32"
   inkscape:version="0.48.4 r9939"
   width="192"
   height="192"
   version="1.0"
   sodipodi:docname="ic_status_open.svg"
   inkscape:output_extension="org.inkscape.output.svg.inkscape">
  <metadata
     id="metadata3006">
    <rdf:RDF>
      <cc:Work
         rdf:about="">
        <dc:format>image/svg+xml</dc:format>
        <dc:type
           rdf:resource="http://purl.org/dc/dcmitype/StillImage" />
      </cc:Work>
    </rdf:RDF>
  </metadata>
  <defs
     id="defs3004">
    <linearGradient
       id="linearGradient5211">
      <stop
         style="stop-color:#00873c;stop-opacity:1;"
         offset="0"
         id="stop5213" />
      <stop
         style="stop-color:#00002d;stop-opacity:1"
         offset="1"
         id="stop5215" />
    </linearGradient>
    <linearGradient
       id="linearGradient5203">
      <stop
         style="stop-color:#00873c;stop-opacity:1;"
         offset="0"
         id="stop5205" />
      <stop
         style="stop-color:#00002d;stop-opacity:1;"
         offset="1"
         id="stop5207" />
    </linearGradient>
    <linearGradient
       id="linearGradient3815">
      <stop
         id="stop3819"
         offset="1"
         style="stop-color:#007acc;stop-opacity:0;" />
      <stop
         id="stop3817"
         offset="0"
         style="stop-color:#007acc;stop-opacity:1;" />
    </linearGradient>
    <linearGradient
       id="linearGradient3807">
      <stop
         style="stop-color:#00b93c;stop-opacity:1;"
         offset="0"
         id="stop3809" />
      <stop
         style="stop-color:#00873c;stop-opacity:1;"
         offset="1"
         id="stop3811" />
    </linearGradient>
    <inkscape:perspective
       sodipodi:type="inkscape:persp3d"
       inkscape:vp_x="0 : 526.18109 : 1"
       inkscape:vp_y="0 : 1000 : 0"
       inkscape:vp_z="744.09448 : 526.18109 : 1"
       inkscape:persp3d-origin="372.04724 : 350.78739 : 1"
       id="perspective3008" />
    <linearGradient
       inkscape:collect="always"
       xlink:href="#linearGradient5203"
       id="linearGradient5209"
       x1="68.561729"
       y1="130.72255"
       x2="60.80867"
       y2="166.10358"
       gradientUnits="userSpaceOnUse" />
    <radialGradient
       inkscape:collect="always"
       xlink:href="#linearGradient3807"
       id="radialGradient5270"
       cx="87.595253"
       cy="66.548531"
       fx="87.595253"
       fy="66.548531"
       r="58.307095"
       gradientTransform="matrix(1,0,0,0.70415156,0,19.688278)"
       gradientUnits="userSpaceOnUse" />
    <linearGradient
       inkscape:collect="always"
       xlink:href="#linearGradient5211"
       id="linearGradient5274"
       x1="151.90567"
       y1="89.732086"
       x2="181.39"
       y2="101.93246"
       gradientUnits="userSpaceOnUse" />
    <radialGradient
       inkscape:collect="always"
       xlink:href="#linearGradient3807-8"
       id="radialGradient5270-3"
       cx="87.595253"
       cy="66.548531"
       fx="87.595253"
       fy="66.548531"
       r="58.307095"
       gradientTransform="matrix(1,0,0,0.70415156,0,19.688278)"
       gradientUnits="userSpaceOnUse" />
    <linearGradient
       id="linearGradient3807-8">
      <stop
         style="stop-color:#008755;stop-opacity:1;"
         offset="0"
         id="stop3809-0" />
      <stop
         style="stop-color:#00873c;stop-opacity:1;"
         offset="1"
         id="stop3811-8" />
    </linearGradient>
  </defs>
  <sodipodi:namedview
     inkscape:window-height="570"
     inkscape:window-width="1024"
     inkscape:pageshadow="2"
     inkscape:pageopacity="0.0"
     guidetolerance="10.0"
     gridtolerance="10.0"
     objecttolerance="10.0"
     borderopacity="1.0"
     bordercolor="#666666"
     pagecolor="#ffffff"
     id="base"
     showgrid="false"
     inkscape:zoom="2.296875"
     inkscape:cx="116.68027"
     inkscape:cy="100.38864"
     inkscape:window-x="0"
     inkscape:window-y="0"
     inkscape:current-layer="svg3001"
     inkscape:window-maximized="1" />
  <path
     style="fill:url(#radialGradient5270);fill-opacity:1.0;fill-rule:nonzero"
     d="M 97.22106,107.32092 C 73.605003,104.82448 48.273269,99.574427 36.309331,94.696857 c -5.280634,-2.15286 -6.632016,-3.40297 -6.975806,-6.45307 -0.250736,-2.22453 0.09991,-2.91828 12.923841,-25.569585 7.249863,-12.805656 14.589004,-25.795922 16.309202,-28.867255 3.602178,-6.431518 3.992928,-6.985023 5.496414,-7.785783 1.851846,-0.986299 4.023506,-0.688699 12.328903,1.689533 20.585459,5.894598 40.209415,8.888371 58.262655,8.888371 l 8.33387,0 1.48392,1.483921 c 2.76719,2.76719 3.2682,1.348401 -15.14262,42.882298 -9.56297,21.573583 -11.2044,24.944413 -12.5447,25.761763 -1.34827,0.8222 -2.56293,0.93042 -9.66461,0.86104 -4.4674,-0.0437 -8.922097,-0.16386 -9.89934,-0.26717 z m 2.408286,-18.289133 c 1.972804,-0.91563 4.303414,-3.47034 5.746544,-6.29912 1.32405,-2.59535 0.83103,-3.22085 -0.84784,-1.07566 -2.66198,3.40137 -7.757283,3.16289 -9.625856,-0.45054 -0.752827,-1.4558 -0.786784,-2.08491 -0.265297,-4.9151 0.579167,-3.143258 3.215376,-10.66237 5.712833,-16.294378 l 1.21789,-2.746477 4.04554,0.100405 c 2.22504,0.05522 4.78423,0.230741 5.6871,0.390039 1.80345,0.318195 2.23815,-0.28305 2.95068,-4.081136 l 0.3435,-1.831002 -7.79829,-0.0015 c -9.47735,-0.002 -14.682472,-0.84086 -22.678116,-3.654947 -6.672047,-2.34824 -9.085353,-2.55737 -12.02606,-1.042152 -2.24616,1.157355 -4.67231,3.495406 -4.159377,4.008339 0.180919,0.180919 1.600911,-0.07114 3.155548,-0.560135 2.372039,-0.746096 3.202619,-0.794394 5.164769,-0.300321 2.917375,0.734607 5.230738,1.907232 5.230738,2.651423 0,0.950514 -3.641458,9.14614 -5.262802,11.844699 -2.205786,3.671299 -4.117104,5.767009 -7.819253,8.573603 -4.760759,3.609133 -5.908864,6.978993 -3.091593,9.074283 2.748792,2.04436 6.409648,-0.63734 10.577736,-7.74855 2.022465,-3.450542 5.644394,-11.626846 7.645979,-17.260381 0.644828,-1.814879 1.219954,-3.368003 1.27807,-3.451397 0.278847,-0.400136 11.900461,2.760814 11.900999,3.236942 3.35e-4,0.300863 -0.90017,2.623893 -2.001128,5.162281 -6.504093,14.995935 -7.547484,22.020515 -3.823881,25.744115 2.431917,2.43191 4.928352,2.69659 8.741567,0.92679 z"
     id="path3012"
     inkscape:connector-curvature="0"
     sodipodi:nodetypes="sssssssscssscscssssscsssccsssssssssssscsscc" />
  <path
     style="fill:url(#linearGradient5209);fill-opacity:1"
     d="m 116.51208,164.21132 c -6.56149,-1.23282 -26.581718,-4.98141 -44.489398,-8.33018 -39.672868,-7.4189 -57.58616,-10.95733 -59.204603,-11.69474 -2.000605,-0.91153 -3.0851403,-3.26809 -2.761532,-6.00045 0.15406,-1.3008 2.918216,-9.77351 6.142568,-18.82825 6.7716,-19.01623 7.097252,-19.564363 11.609433,-19.540833 1.843134,0.01 4.388564,0.660063 8.321016,2.126373 16.08681,5.99833 52.801598,12.14617 74.678266,12.50478 4.57149,0.0749 4.73737,0.1196 5.94275,1.60006 0.682,0.83764 5.16466,10.31816 9.96147,21.06783 9.10183,20.39723 9.97111,23.04796 8.62452,26.29892 -0.75241,1.81648 -3.01147,3.16061 -5.19605,3.09163 -0.93416,-0.0295 -7.06696,-1.06231 -13.62844,-2.29514 z"
     id="path3012-0-0"
     inkscape:connector-curvature="0"
     sodipodi:nodetypes="ssssscsssssss" />
  <path
     style="fill:url(#linearGradient5274);fill-opacity:1"
     d="m 144.17292,156.37651 c -1.79423,-0.92177 -3.01935,-3.38461 -11.47497,-23.06804 -6.36072,-14.80683 -8.27672,-19.76304 -8.24263,-21.32166 0.0803,-3.67168 26.41113,-63.920448 28.89785,-66.122492 2.99235,-2.649789 7.37455,-1.023653 17.5403,6.508793 C 180.46543,59.465586 182,61.165353 182,64.675282 c 0,0.950357 -1.38222,6.158852 -3.07159,11.57444 -5.62068,18.01805 -23.86201,72.343328 -25.34281,75.474478 -0.80241,1.69669 -2.05101,3.47284 -2.77466,3.947 -1.58973,1.04163 -5.23038,1.42846 -6.63802,0.70531 z"
     id="path3012-0"
     inkscape:connector-curvature="0"
     sodipodi:nodetypes="ssssssssss" />
  <path
     style="fill:#000000;fill-opacity:1;fill-rule:nonzero"
     d="m 99.629182,89.032227 c 1.972808,-0.91563 4.303418,-3.47034 5.746548,-6.29912 1.32405,-2.59535 0.83103,-3.22085 -0.84784,-1.07566 -2.66198,3.40137 -7.757278,3.16289 -9.625858,-0.45054 -0.75282,-1.4558 -0.78678,-2.08491 -0.26529,-4.9151 0.57916,-3.143258 3.21537,-10.66237 5.712828,-16.294378 l 1.21789,-2.746477 4.04554,0.100405 c 2.22504,0.05522 4.78423,0.230741 5.6871,0.390039 1.80345,0.318195 2.23815,-0.28305 2.95068,-4.081136 l 0.3435,-1.831002 -7.79829,-0.0015 c -9.477348,-0.002 -14.682468,-0.84086 -22.678118,-3.654947 -6.672045,-2.34824 -9.085351,-2.55737 -12.026058,-1.042152 -2.24616,1.157355 -4.67231,3.495406 -4.159377,4.008339 0.180919,0.180919 1.600911,-0.07114 3.155548,-0.560135 2.372039,-0.746096 3.202619,-0.794394 5.164769,-0.300321 2.917375,0.734607 5.230738,1.907232 5.230738,2.651423 0,0.950514 -3.641458,9.14614 -5.262802,11.844699 -2.205786,3.671299 -4.117104,5.767009 -7.819253,8.573603 -4.760759,3.609133 -5.908864,6.978993 -3.091593,9.074283 2.748792,2.04436 6.409648,-0.63734 10.577736,-7.74855 2.022465,-3.450542 5.644394,-11.626846 7.645982,-17.260381 0.64483,-1.814879 1.21995,-3.368003 1.27807,-3.451397 0.27884,-0.400136 11.90046,2.760814 11.901,3.236942 3.3e-4,0.300863 -0.90017,2.623893 -2.00113,5.162281 -6.50409,14.995935 -7.54749,22.020515 -3.82388,25.744115 2.43191,2.43191 4.92835,2.69659 8.74156,0.92679 z"
     id="path3012-5"
     inkscape:connector-curvature="0"
     sodipodi:nodetypes="cssssscsssccsssssssssssscsscc" />
</svg>
